<?xml version="1.0" standalone="no"?>
<!DOCTYPE svg PUBLIC "-//W3C//DTD SVG 20010904//EN"
 "http://www.w3.org/TR/2001/REC-SVG-20010904/DTD/svg10.dtd">
<svg version="1.0" xmlns="http://www.w3.org/2000/svg"
 width="860.000000pt" height="860.000000pt" viewBox="0 0 860.000000 860.000000"
 preserveAspectRatio="xMidYMid meet">

<g transform="translate(0.000000,860.000000) scale(0.100000,-0.100000)"
fill="#000000" stroke="none">
<path d="M0 4300 l0 -4300 4300 0 4300 0 0 4300 0 4300 -4300 0 -4300 0 0
-4300z m3533 3318 c132 -63 218 -162 266 -305 l21 -62 0 -2964 c0 -1975 -3
-2982 -10 -3018 -34 -179 -191 -340 -370 -379 -40 -8 -211 -11 -626 -8 l-571
3 -84 42 c-112 55 -177 120 -232 232 l-42 84 0 3021 c0 2947 0 3022 19 3071
26 69 76 145 127 193 47 46 156 107 215 121 22 5 292 9 624 8 l585 -2 78 -37z
m2896 3 c40 -19 91 -49 112 -66 71 -56 149 -177 167 -260 4 -16 7 -1385 7
-3041 l0 -3011 -42 -84 c-55 -112 -120 -177 -232 -232 l-84 -42 -571 -3 c-415
-3 -586 0 -626 8 -176 39 -333 197 -370 374 -7 35 -9 988 -8 3036 l3 2985 33
77 c59 136 195 255 328 287 22 5 292 9 624 8 l585 -2 74 -34z"/>
<path d="M2527 7155 c-58 -22 -94 -52 -124 -103 l-28 -47 -3 -2723 c-2 -2365
0 -2727 12 -2757 25 -59 65 -103 119 -130 l51 -25 284 0 c194 0 298 4 326 12
60 18 139 100 154 160 17 67 17 5388 0 5456 -15 60 -96 145 -153 161 -62 17
-590 13 -638 -4z"/>
<path d="M5431 7157 c-48 -18 -108 -72 -134 -120 l-22 -42 0 -2725 0 -2725 22
-41 c29 -55 93 -109 146 -123 29 -8 133 -11 333 -9 l291 3 49 30 c30 19 60 49
79 79 l30 49 3 2715 c1 1791 -1 2727 -8 2752 -15 57 -63 115 -117 141 -47 23
-54 24 -343 26 -214 1 -304 -1 -329 -10z"/>
</g>
</svg>
